<?xml version="1.0" encoding="UTF-8" standalone="no"?>
<!-- Created with Inkscape (http://www.inkscape.org/) -->

<svg
   xmlns:dc="http://purl.org/dc/elements/1.1/"
   xmlns:cc="http://creativecommons.org/ns#"
   xmlns:rdf="http://www.w3.org/1999/02/22-rdf-syntax-ns#"
   xmlns:svg="http://www.w3.org/2000/svg"
   xmlns="http://www.w3.org/2000/svg"
   xmlns:sodipodi="http://sodipodi.sourceforge.net/DTD/sodipodi-0.dtd"
   xmlns:inkscape="http://www.inkscape.org/namespaces/inkscape"
   version="1.1"
   id="svg834"
   xml:space="preserve"
   width="330.13464"
   height="323.27866"
   viewBox="0 0 330.13464 323.27865"
   sodipodi:docname="InstagramLogo.svg"
   inkscape:version="0.92.2 5c3e80d, 2017-08-06"><metadata
     id="metadata840"><rdf:RDF><cc:Work
         rdf:about=""><dc:format>image/svg+xml</dc:format><dc:type
           rdf:resource="http://purl.org/dc/dcmitype/StillImage" /><dc:title></dc:title></cc:Work></rdf:RDF></metadata><defs
     id="defs838"><clipPath
       clipPathUnits="userSpaceOnUse"
       id="clipPath850"><path
         d="M 0,400 H 600 V 0 H 0 Z"
         id="path848"
         inkscape:connector-curvature="0" /></clipPath></defs><sodipodi:namedview
     pagecolor="#ffffff"
     bordercolor="#666666"
     borderopacity="1"
     objecttolerance="10"
     gridtolerance="10"
     guidetolerance="10"
     inkscape:pageopacity="0"
     inkscape:pageshadow="2"
     inkscape:window-width="1183"
     inkscape:window-height="750"
     id="namedview836"
     showgrid="false"
     inkscape:zoom="1"
     inkscape:cx="164.23854"
     inkscape:cy="162.49308"
     inkscape:window-x="0"
     inkscape:window-y="0"
     inkscape:window-maximized="0"
     inkscape:current-layer="g844" /><g
     id="g842"
     inkscape:groupmode="layer"
     inkscape:label="Instagram New Logo"
     transform="matrix(1.3333333,0,0,-1.3333333,-235.76146,427.45226)"><g
       id="g844"><g
         id="g846"
         clip-path="url(#clipPath850)"
         style="fill:#7d7d7d;fill-opacity:1;stroke:#7d7d7d;stroke-opacity:1"><g
           id="g852"
           transform="translate(401.8501,145.2422)"
           style="fill:#7d7d7d;fill-opacity:1;stroke:#7d7d7d;stroke-opacity:1"><path
             d="m 0,0 c 0,-24.75 -20.25,-45 -45,-45 h -112.456 c -24.75,0 -45,20.25 -45,45 v 108.235 c 0,24.75 20.25,45 45,45 L -45,153.234 c 24.75,0 45,-20.25 45,-45 z m -42.928,174.847 h -116.601 c -35.75,0 -65,-29.25 -65,-65 V -1.612 c 0,-35.75 29.25,-65 65,-65 h 116.601 c 35.75,0 65,29.25 65,65 v 111.459 c 0,35.75 -29.25,65 -65,65"
             style="fill:#7d7d7d;fill-opacity:1;fill-rule:nonzero;stroke:#7d7d7d;stroke-opacity:1"
             id="path854"
             inkscape:connector-curvature="0" /></g><g
           id="g856"
           transform="translate(300.6064,159.3437)"
           style="fill:#7d7d7d;fill-opacity:1;stroke:#7d7d7d;stroke-opacity:1"><path
             d="m 0,0 c -22.092,0 -40,17.908 -40,40 10e-4,22.093 17.908,40 40.001,40.001 22.092,0 40,-17.908 40,-40 C 40.001,17.909 22.093,0.001 0,0 m 0,102 c -34.242,0 -61.999,-27.757 -61.999,-61.999 0,-34.242 27.758,-62 62,-62 C 34.243,-21.999 62,5.758 62,40 62,74.242 34.242,102 0,102"
             style="fill:#7d7d7d;fill-opacity:1;fill-rule:nonzero;stroke:#7d7d7d;stroke-opacity:1"
             id="path858"
             inkscape:connector-curvature="0" /></g><g
           id="g860"
           transform="translate(379.9395,264.6768)"
           style="fill:#7d7d7d;fill-opacity:1;stroke:#7d7d7d;stroke-opacity:1"><path
             d="m 0,0 c 0,-7.732 -6.268,-14 -14,-14 -7.732,0 -14,6.268 -14,14 0,7.732 6.268,14 14,14 C -6.268,14 0,7.732 0,0"
             style="fill:#7d7d7d;fill-opacity:1;fill-rule:nonzero;stroke:#7d7d7d;stroke-opacity:1"
             id="path862"
             inkscape:connector-curvature="0" /></g></g></g></g></svg>